<?xml version="1.0" encoding="UTF-8"?> <svg xmlns="http://www.w3.org/2000/svg" width="56" height="56" viewBox="0 0 56 56" fill="none"><path d="M43.75 23.625C43.75 14.9404 36.6846 7.875 28 7.875C19.3154 7.875 12.25 14.9404 12.25 23.625C12.25 26.4537 12.9636 29.2367 14.3248 31.7164C15.686 34.196 17.6508 36.2922 20.0373 37.8109L21.875 38.9803V49.875C21.875 50.0643 21.9367 50.2484 22.0508 50.3994L22.05 50.4L24.675 53.9C24.7565 54.0087 24.8622 54.0969 24.9837 54.1576C25.1052 54.2184 25.2392 54.25 25.375 54.25H30.625C30.7608 54.25 30.8948 54.2184 31.0163 54.1576C31.1378 54.0969 31.2435 54.0087 31.325 53.9L33.95 50.4L33.9492 50.3994C34.0633 50.2484 34.125 50.0643 34.125 49.875V38.9803L35.9627 37.8109C38.3492 36.2922 40.314 34.196 41.6752 31.7164C43.0364 29.2367 43.75 26.4537 43.75 23.625ZM32.375 42V43.1194L23.625 46.036V42H32.375ZM23.625 47.8806L32.375 44.964V49H23.625V47.8806ZM30.1875 52.5H25.8125L24.5 50.75H31.5L30.1875 52.5ZM35.0232 36.3344L32.7802 37.7618C32.6561 37.8408 32.5538 37.9499 32.483 38.0789C32.4121 38.208 32.375 38.3528 32.375 38.5V40.25H30.625V32.6298L36.6132 23.2198C36.7201 23.0518 36.7665 22.8524 36.7448 22.6545C36.723 22.4566 36.6345 22.2721 36.4937 22.1313L33.8687 19.5063C33.7046 19.3422 33.4821 19.25 33.25 19.25C33.0179 19.25 32.7954 19.3422 32.6313 19.5063L30.625 21.5125L28.6187 19.5063C28.4546 19.3422 28.2321 19.25 28 19.25C27.7679 19.25 27.5454 19.3422 27.3813 19.5063L25.375 21.5125L23.3687 19.5063L22.1313 20.7437L24.7563 23.3687C24.9204 23.5328 25.1429 23.625 25.375 23.625C25.6071 23.625 25.8296 23.5328 25.9937 23.3687L28 21.3625L30.0063 23.3687C30.1704 23.5328 30.3929 23.625 30.625 23.625C30.8571 23.625 31.0796 23.5328 31.2437 23.3687L33.25 21.3625L34.7599 22.8724L29.0118 31.9052C28.9225 32.0456 28.875 32.2086 28.875 32.375V40.25H23.625V38.5C23.625 38.3528 23.5879 38.208 23.517 38.0789C23.4462 37.9499 23.3439 37.8408 23.2198 37.7618L20.9768 36.3345C18.8341 34.9787 17.0703 33.1017 15.8502 30.879C14.63 28.6564 13.9935 26.1606 14 23.625C14 19.912 15.475 16.351 18.1005 13.7255C20.726 11.1 24.287 9.625 28 9.625C31.713 9.625 35.274 11.1 37.8995 13.7255C40.525 16.351 42 19.912 42 23.625C42.0065 26.1605 41.37 28.6563 40.1499 30.879C38.9297 33.1017 37.1659 34.9787 35.0232 36.3344Z" fill="#DF2E2E"></path><path d="M27.125 1.75H28.875V5.25H27.125V1.75Z" fill="#DF2E2E"></path><path d="M15.8672 5.23523L17.3827 4.36023L19.1327 7.39123L17.6172 8.26623L15.8672 5.23523Z" fill="#DF2E2E"></path><path d="M7.86035 13.8831L8.73535 12.3676L11.7664 14.1176L10.8914 15.6331L7.86035 13.8831Z" fill="#DF2E2E"></path><path d="M5.25 23.625H8.75V25.375H5.25V23.625Z" fill="#DF2E2E"></path><path d="M7.86035 35.1163L10.8914 33.3663L11.7664 34.8818L8.73535 36.6318L7.86035 35.1163Z" fill="#DF2E2E"></path><path d="M15.8662 43.765L17.6162 40.734L19.1317 41.609L17.3817 44.64L15.8662 43.765Z" fill="#DF2E2E"></path><path d="M36.8662 41.6074L38.3817 40.7324L40.1317 43.7634L38.6162 44.6384L36.8662 41.6074Z" fill="#DF2E2E"></path><path d="M44.2324 34.884L45.1074 33.3685L48.1384 35.1185L47.2634 36.634L44.2324 34.884Z" fill="#DF2E2E"></path><path d="M47.25 23.625H50.75V25.375H47.25V23.625Z" fill="#DF2E2E"></path><path d="M44.2324 14.1169L47.2634 12.3669L48.1384 13.8824L45.1074 15.6324L44.2324 14.1169Z" fill="#DF2E2E"></path><path d="M36.8672 7.39252L38.6172 4.36152L40.1327 5.23652L38.3827 8.26752L36.8672 7.39252Z" fill="#DF2E2E"></path></svg> 