<?xml version="1.0" encoding="UTF-8"?> <svg xmlns="http://www.w3.org/2000/svg" width="40" height="48" viewBox="0 0 40 48" fill="none"><path d="M38.8502 7.15002H30.5002V1.50002C30.5002 1.05002 30.1002 0.650024 29.6002 0.650024H1.1002C0.600196 0.650024 0.250195 1.05002 0.200195 1.50002V40C0.200195 40.5 0.600196 40.9 1.1002 40.9H9.5002V46.5C9.5002 47 9.9002 47.35 10.3502 47.4H38.8502C39.3502 47.4 39.7002 47 39.7502 46.55V8.00002C39.7002 7.55002 39.3502 7.15002 38.8502 7.15002ZM28.7502 7.15002H15.7002L28.8002 2.75002V7.15002H28.7502ZM2.0502 39.1V2.35002H24.3502L10.1002 7.15002C9.7502 7.30002 9.5002 7.60002 9.5002 8.00002V39.1H2.0502ZM37.9502 45.6H11.2502V8.90002H38.0002L37.9502 45.6Z" fill="#DF2E2E"></path><path d="M22.1 12.1H15.65C15.15 12.1 14.75 12.5 14.75 13V19.45C14.75 19.95 15.15 20.3 15.65 20.35H22.1C22.6 20.35 23 19.95 23 19.5V12.95C23 12.5 22.6 12.1 22.1 12.1ZM21.25 18.55H16.55V13.85H21.25V18.55Z" fill="#DF2E2E"></path><path d="M22.1 23.15H15.65C15.15 23.15 14.75 23.55 14.75 24.05V30.5C14.75 31 15.15 31.4 15.65 31.4H22.1C22.6 31.4 23 31 23 30.55V24C23 23.55 22.6 23.15 22.1 23.15ZM21.25 29.6H16.55V24.9H21.25V29.6Z" fill="#DF2E2E"></path><path d="M22.1 34.2H15.65C15.15 34.2 14.75 34.6 14.75 35.1V41.55C14.75 42.05 15.15 42.45 15.65 42.45H22.1C22.6 42.45 23 42.05 23 41.6V35.1C23 34.6 22.6 34.2 22.1 34.2ZM21.25 40.7H16.55V36H21.25V40.7Z" fill="#DF2E2E"></path><path d="M26.1504 14.3C26.1504 14.8 26.5504 15.15 27.0004 15.2H33.5004C34.0004 15.2 34.4004 14.8 34.4004 14.3C34.4004 13.8 34.0004 13.4 33.5004 13.4H27.0004C26.5504 13.4 26.1504 13.8 26.1504 14.3Z" fill="#DF2E2E"></path><path d="M33.5504 17.2H27.0504C26.5504 17.2 26.1504 17.6 26.1504 18.1C26.1504 18.6 26.5504 19 27.0504 19H33.5504C34.0504 19 34.4504 18.6 34.4504 18.1C34.4504 17.6 34.0504 17.2 33.5504 17.2Z" fill="#DF2E2E"></path><path d="M33.5504 24.5H27.0504C26.5504 24.5 26.1504 24.9 26.1504 25.4C26.1504 25.9 26.5504 26.3 27.0504 26.3H33.5504C34.0504 26.3 34.4504 25.9 34.4504 25.4C34.4504 24.9 34.0504 24.5 33.5504 24.5Z" fill="#DF2E2E"></path><path d="M33.5504 28.3H27.0504C26.5504 28.3 26.1504 28.7001 26.1504 29.2001C26.1504 29.7001 26.5504 30.1 27.0504 30.1H33.5504C34.0504 30.1 34.4504 29.7001 34.4504 29.2001C34.4504 28.7001 34.0504 28.3 33.5504 28.3Z" fill="#DF2E2E"></path><path d="M33.5504 35.55H27.0504C26.5504 35.55 26.1504 35.9501 26.1504 36.4501C26.1504 36.9501 26.5504 37.35 27.0504 37.35H33.5504C34.0504 37.35 34.4504 36.9501 34.4504 36.4501C34.4504 35.9501 34.0504 35.55 33.5504 35.55Z" fill="#DF2E2E"></path><path d="M33.5504 39.35H27.0504C26.5504 39.35 26.1504 39.75 26.1504 40.25C26.1504 40.75 26.5504 41.15 27.0504 41.15H33.5504C34.0504 41.15 34.4504 40.75 34.4504 40.25C34.4504 39.75 34.0504 39.35 33.5504 39.35Z" fill="#DF2E2E"></path></svg> 